<?xml version="1.0" encoding="utf-8"?>
<!-- Svg Vector Icons : http://www.onlinewebfonts.com/icon -->
<!DOCTYPE svg PUBLIC "-//W3C//DTD SVG 1.1//EN" "http://www.w3.org/Graphics/SVG/1.1/DTD/svg11.dtd">
<svg version="1.1" xmlns="http://www.w3.org/2000/svg" xmlns:xlink="http://www.w3.org/1999/xlink" x="0px" y="0px" viewBox="0 0 256 256" enable-background="new 0 0 256 256" xml:space="preserve">
<metadata> Svg Vector Icons : http://www.onlinewebfonts.com/icon </metadata>
<g><g><path fill="#000000" d="M173.4,73.5H82.6c-5,0-9.1,4.1-9.1,9.1v90.7c0,5,4.1,9.1,9.1,9.1h90.7c5,0,9.1-4.1,9.1-9.1V82.6C182.4,77.6,178.4,73.5,173.4,73.5z"/><path fill="#000000" d="M236.9,137.1c5,0,9.1-4.1,9.1-9.1c0-5-4.1-9.1-9.1-9.1h-18.2V91.7h18.2c5,0,9.1-4.1,9.1-9.1s-4.1-9.1-9.1-9.1h-18.2V55.4c0-10-8.1-18.2-18.2-18.2h-18.2V19.1c0-5-4.1-9.1-9.1-9.1s-9.1,4.1-9.1,9.1v18.2h-27.2V19.1c0-5-4.1-9.1-9.1-9.1s-9.1,4.1-9.1,9.1v18.2H91.7V19.1c0-5-4.1-9.1-9.1-9.1s-9.1,4.1-9.1,9.1v18.2H55.4c-10,0-18.2,8.1-18.2,18.2v18.2H19.1c-5,0-9.1,4.1-9.1,9.1s4.1,9.1,9.1,9.1h18.2v27.2H19.1c-5,0-9.1,4-9.1,9.1c0,5,4.1,9.1,9.1,9.1h18.2v27.2H19.1c-5,0-9.1,4.1-9.1,9.1c0,5,4.1,9.1,9.1,9.1h18.2v18.2c0,10,8.1,18.2,18.2,18.2h18.2v18.2c0,5,4.1,9.1,9.1,9.1s9.1-4.1,9.1-9.1v-18.2h27.2v18.2c0,5,4.1,9.1,9.1,9.1c5,0,9.1-4.1,9.1-9.1v-18.2h27.2v18.2c0,5,4.1,9.1,9.1,9.1c5,0,9.1-4.1,9.1-9.1v-18.2h18.2c10,0,18.2-8.1,18.2-18.2v-18.2h18.2c5,0,9.1-4.1,9.1-9.1c0-5-4.1-9.1-9.1-9.1h-18.2v-27.2H236.9z M200.6,200.6H64.5c-5,0-9.1-4.1-9.1-9.1V55.4h136.1c5,0,9.1,4.1,9.1,9.1L200.6,200.6L200.6,200.6z"/></g></g>
</svg>