<?xml version="1.0" encoding="utf-8"?>
<!-- Svg Vector Icons : http://www.onlinewebfonts.com/icon -->
<!DOCTYPE svg PUBLIC "-//W3C//DTD SVG 1.1//EN" "http://www.w3.org/Graphics/SVG/1.1/DTD/svg11.dtd">
<svg version="1.1" xmlns="http://www.w3.org/2000/svg" xmlns:xlink="http://www.w3.org/1999/xlink" x="0px" y="0px" viewBox="0 0 256 256" enable-background="new 0 0 256 256" xml:space="preserve">
<metadata> Svg Vector Icons : http://www.onlinewebfonts.com/icon </metadata>
<g><g><g><path fill="#000000" d="M17.6,50c-2.4,0.8-5,3.3-6.2,5.8L10.2,58l-0.1,25.1c-0.1,13.8,0,25.6,0.1,26.1c0.3,1.3,2,3,3,3c1.4,0,5.9,2.4,7.5,3.9c5.1,4.9,6.5,12.2,3.6,18.4c-1.5,3.2-5.4,6.8-8.5,7.9c-3.6,1.2-4.6,1.9-5.2,3.1c-0.5,0.9-0.6,7-0.6,25.6c0,27.4,0,27.7,3.2,31.2c3.2,3.6,4.5,3.9,16.9,4c6,0.1,11.4,0,12.1-0.1c0.7-0.2,1.5-0.7,2.1-1.2c0.9-0.9,0.9-1.6,0.9-9.9c0-9.9,0.3-11.2,2.8-12.2c1.1-0.5,1.7-0.5,2.8,0c2.5,1,2.8,2.3,2.8,11.9c0,4.7,0.1,9,0.3,9.4c0.8,1.9,2.4,2.1,15.2,2.1s14.5-0.2,15.2-2.1c0.1-0.4,0.3-4.7,0.3-9.4c0-9.6,0.3-10.9,2.8-11.9c1.1-0.5,1.7-0.5,2.9,0c2.4,1,2.8,2.6,2.8,12.1c0,4.6,0.1,8.8,0.3,9.2c0.8,1.9,2.4,2.1,15.2,2.1c12.8,0,14.5-0.2,15.2-2.1c0.1-0.4,0.3-4.6,0.3-9.4c0-4.7,0.2-9.1,0.5-9.8c0.2-0.7,1.2-1.6,2.1-2c1.5-0.8,1.7-0.8,3.3,0c2.2,1,2.5,2.6,2.5,12.4c0,8.6,0.2,9.7,2.2,10.5c1.6,0.7,24.5,0.6,26.3,0c0.8-0.3,1.6-1,1.9-1.5c0.3-0.6,0.6-4.6,0.7-10.3c0.1-8.5,0.2-9.3,1.1-10.2c1.6-1.5,3.6-1.7,5.3-0.3l1.5,1.3l0.1,9.6c0.1,9.2,0.2,9.6,1.2,10.7c1,1.1,1.1,1.1,14.4,1.1h13.3l1.2-1.1l1.2-1.1v-9.3c0-9,0-9.3,1.1-10.5c1.6-1.8,3.6-2,5.4-0.5l1.5,1.2l0.1,9.6c0.2,12.8-1,11.7,12.9,11.9c6.6,0.1,11.5,0,13.1-0.4c3.4-0.7,6.2-2.9,7.8-6.1l1.3-2.6v-26.1c0-29.6,0.4-27.1-4-28.4c-7.1-2.1-11.8-8.7-11.4-16c0.5-6.9,4.6-12.3,11.4-14.5c4.3-1.4,4,1,3.8-29L245.8,57l-1.4-2.3c-0.9-1.4-2.3-2.8-3.7-3.7l-2.3-1.4l-109.6-0.1C43.5,49.4,18.8,49.5,17.6,50z M237.3,58l1.2,1.1v23.1v23.1l-3,1.5c-5.2,2.7-9.3,7.5-11.4,13.2c-1.5,4.1-1.5,10.3-0.2,14.7c1.8,5.9,6.7,11.5,12.2,14l2.3,1.1v23.1v23.2l-1.2,1.1c-1.1,1.2-1.2,1.2-9.8,1.2h-8.7l-0.2-7.4c-0.1-6.5-0.3-7.6-1.2-9.3c-2.3-4.5-5.7-6.5-10.6-6.5c-5.1,0-8.4,2.3-10.5,6.8c-0.8,1.8-1,3.1-1,9.2v7.2h-7.9h-7.9l-0.2-7.4c-0.1-7.1-0.2-7.5-1.5-9.9c-2.3-4.2-6.7-6.5-11.3-6.1c-4.3,0.4-7.7,2.8-9.4,6.7c-1,2.2-1.1,3-1.1,9.5v7.2H148h-7.9l-0.2-7.4c-0.1-7.2-0.2-7.5-1.5-9.9c-4.9-8.9-17.8-7.9-21.2,1.6c-0.4,1.2-0.6,4.2-0.7,8.7v6.9h-8h-8v-6.5c0-8.1-0.6-10.5-3.4-13.4c-6.1-6.2-16.5-3.9-19.4,4.2c-0.4,1.2-0.6,4.2-0.7,8.7v6.9h-8h-8v-6.5c0-8.1-0.7-10.6-3.5-13.4c-4.6-4.6-11.9-4.7-16.5,0c-2.9,2.9-3.5,5.2-3.5,13.2v6.7h-8.8c-8.4,0-8.8,0-9.9-1l-1.1-1v-23.3v-23.3l2.4-1.1c3.3-1.5,8.4-6.3,10.1-9.7c3.8-7.1,3.8-15.5,0.2-22.3c-1.8-3.4-6.8-8.3-10-9.9l-2.7-1.3V82.3V59.1l1.2-1.1l1.1-1.2h108h108L237.3,58z"/><path fill="#000000" d="M51.4,73.1c-0.3,0.1-0.9,0.8-1.3,1.5c-0.6,1.2-0.7,6.5-0.7,37.3c0,38.1,0,38,2.1,38.9c0.4,0.1,10.2,0.3,21.8,0.3h21l1-1.1l1-1.1v-37.1V74.7l-1.2-0.9c-1.2-1-1.7-1-22.2-0.9C61.4,72.9,51.7,73,51.4,73.1z M88.8,112v31.7H73.1H57.4V112V80.3h15.7h15.7V112z"/><path fill="#000000" d="M105.9,74l-1.2,1.1V112v36.9l1.2,1.1l1.1,1.2h21.2h21.2l1.1-1.2l1.2-1.1V112V75.1l-1.2-1.1l-1.1-1.2h-21.2h-21.2L105.9,74z M144.2,112v31.7h-16h-16V112V80.3h16h16V112z"/><path fill="#000000" d="M161.6,73.1c-0.3,0.1-0.9,0.8-1.3,1.5c-0.6,1.2-0.7,6.5-0.7,37.3c0,38.1,0,38,2.1,38.9c0.4,0.1,10.2,0.3,21.8,0.3h21l1-1.1l1-1.1v-37.1V74.7l-1.2-0.9c-1.2-1-1.7-1-22.2-0.9C171.7,72.9,162,73,161.6,73.1z M199.1,112v31.7h-15.7h-15.7V112V80.3h15.7h15.7V112z"/></g></g></g>
</svg>