<?xml version="1.0" encoding="utf-8"?>
<!-- Svg Vector Icons : http://www.onlinewebfonts.com/icon -->
<!DOCTYPE svg PUBLIC "-//W3C//DTD SVG 1.1//EN" "http://www.w3.org/Graphics/SVG/1.1/DTD/svg11.dtd">
<svg version="1.1" xmlns="http://www.w3.org/2000/svg" xmlns:xlink="http://www.w3.org/1999/xlink" x="0px" y="0px" viewBox="0 0 256 256" enable-background="new 0 0 256 256" xml:space="preserve">
<metadata> Svg Vector Icons : http://www.onlinewebfonts.com/icon </metadata>
<g><g><g><path fill="#000000" d="M122.8,10.5c-4.2,0.7-9.5,3.7-12.9,7.1c-10.2,10.2-10.1,26.5,0.3,36.7c2.6,2.5,8.3,6,9.8,6c0.6,0,0.6,3.2,0.6,19.6l-0.1,19.6l-2.4,0.8c-3.1,1.1-6.2,2.9-8.9,5.2l-2.2,1.8l-16.8-9.7l-16.8-9.7l0.4-2.2c0.9-4.6-0.5-12-3.2-16.7c-1.6-2.8-5.7-7-8.5-8.8c-10.1-6.5-23.6-5-32.2,3.7c-12.3,12.4-8.8,33.2,6.8,41c9.6,4.8,19.6,3.5,28.9-3.7c0.3-0.2,7.1,3.4,17.2,9.2l16.7,9.6l-0.4,2.1c-0.4,2.7-0.4,9.3,0,12l0.4,2.1l-16.7,9.6c-10.2,5.9-16.9,9.5-17.2,9.2c-0.3-0.2-1.8-1.2-3.4-2.3c-10.1-6.8-23.6-5.3-32.3,3.6c-9.9,10-9.9,26.1,0,36c7.2,7.2,17.7,9.7,26.8,6.3c11.2-4.1,18.5-15.4,17.2-26.8l-0.4-3.6l16.7-9.7l16.7-9.7l2.2,1.8c2.8,2.3,5.8,4.1,8.9,5.2l2.4,0.8l0.1,19.4l0.1,19.3l-3.9,1.9c-19.2,9.5-19.3,36.7-0.1,46.2c17.2,8.5,37.2-4.1,37.2-23.3c0-9.1-5.8-18.4-13.9-22.5c-1.8-0.9-3.6-1.7-3.9-1.7c-0.6,0-0.6-3.2-0.6-19.6l0.1-19.6l2.4-0.8c3.1-1.1,6.2-2.9,8.9-5.2l2.2-1.8l16.8,9.7l16.8,9.7l-0.4,2c-1.4,7.2,1.2,15.5,6.5,21.3c5,5.3,10.5,7.9,17.5,8.4c14.3,0.9,26.3-10,27.1-24.3c0.4-7.7-2-14-7.2-19.3c-8.8-8.9-22.2-10.4-32.3-3.6c-1.6,1.1-3.1,2.1-3.4,2.3c-0.3,0.3-7-3.3-17.2-9.2l-16.7-9.6l0.4-2.1c0.5-2.6,0.5-9.3,0-12l-0.4-2.1l16.7-9.6c10.2-5.9,16.9-9.5,17.2-9.2c0.3,0.2,1.8,1.2,3.4,2.3c16.3,10.9,38.6-0.4,39.6-20.2c0.4-7.7-2-14.2-7.2-19.4c-5.5-5.5-12.4-8.2-19.8-7.7c-8.5,0.6-15.6,4.8-20.4,12c-3.1,4.8-4.7,12-3.7,17.2l0.4,2.4L166,97.6l-16.8,9.7l-2.2-1.8c-2.4-2-6.2-4.2-9.4-5.4l-2.2-0.8V79.8c0-16.2,0.1-19.6,0.6-19.6c0.3,0,2.1-0.7,3.9-1.7c4.7-2.4,8.7-6.5,11.1-11.4C160.5,27.8,144,6.5,122.8,10.5z"/></g></g></g>
</svg>